<svg id="Layer_1" enable-background="new 0 0 511.905 511.905" height="512" viewBox="0 0 511.905 511.905" width="512" xmlns="http://www.w3.org/2000/svg"><g><path d="m436.905 136.905c-4.724-29.355-19.046-56.302-41.043-76.831-24.983-23.315-57.571-36.155-91.761-36.155-27.36 0-53.696 8.169-76.16 23.625-18.749 12.899-33.77 30.11-43.925 50.212-2.298-.134-4.599-.202-6.893-.202-50.509 0-94.743 31.898-111.062 78.786-16.455 2.654-31.601 10.447-43.486 22.538-14.557 14.811-22.575 34.407-22.575 55.179 0 43.424 35.328 78.751 78.751 78.751h333.669c54.856 0 99.485-44.629 99.485-99.485 0-45.859-31.508-85.403-75-96.418z" fill="#9bb9c3"/><path d="m436.905 136.905c-4.724-29.355-19.046-56.302-41.043-76.831-24.983-23.315-57.571-36.155-91.761-36.155-16.644 0-32.903 3.041-48.148 8.889v300.001h156.467c54.856 0 99.485-44.629 99.485-99.485 0-45.86-31.508-85.404-75-96.419z" fill="#607882"/><path d="m419.313 353.295c-3.614-14.703-11.443-28.096-22.718-38.583-12.147-11.298-27.374-18.351-43.65-20.355-19.123-35.401-56.223-57.804-96.947-57.804-40.72 0-77.817 22.399-96.941 57.793-16.299 1.991-31.557 9.048-43.724 20.366-11.275 10.488-19.105 23.88-22.719 38.583-31.407 5.97-55.227 33.63-55.227 66.75 0 37.463 30.479 67.942 67.942 67.942h301.269c37.463 0 67.942-30.479 67.942-67.942 0-33.119-23.82-60.78-55.227-66.75z" fill="#ebebf0"/><path d="m419.313 353.295c-3.614-14.703-11.443-28.096-22.718-38.583-12.147-11.298-27.374-18.351-43.65-20.355-19.123-35.401-56.223-57.804-96.947-57.804-.015 0-.03.001-.045.001v251.433h150.646c37.463 0 67.942-30.479 67.942-67.942-.001-33.119-23.821-60.78-55.228-66.75z" fill="#d2d2d7"/></g></svg>