<svg id="Layer_1" enable-background="new 0 0 511.929 511.929" height="512" viewBox="0 0 511.929 511.929" width="512" xmlns="http://www.w3.org/2000/svg"><g><path d="m23.638 41.629v85.779l29.333 30.001v75.666l44.667 49.335v88.797l43.002 46.074 43.001-46.074v-170.756l19.292-22.824h14.729l25.958 101.332h25.194l32.046-121.333h23.778v75.782l29 34.666v73.915l45.002 30 45.001-30.001v-51.681l20.663-32.667v-69.253l24.571-74.003v-72.755z" fill="#7be2f6"/><path d="m255.997 41.629c.07 48.035.21 153.462.231 237.33h12.587l32.046-121.333h23.777v75.782l29 34.666v73.915l45.002 30 45.001-30.001v-51.682l20.663-32.667v-69.253l24.571-74.003v-72.754z" fill="#55d0f9"/><g><path d="m0 26.628h511.929v30h-511.929z" fill="#55d0f9"/></g><g><path d="m125.639 441.295h30.001v30h-30.001z" fill="#55d0f9"/></g><g><path d="m383.639 395.298h30.001v30h-30.001z" fill="#55d0f9"/></g><g><path d="m383.639 455.301h30.001v30h-30.001z" fill="#55d0f9"/></g><g><path d="m383.639 395.298h30.001v30h-30.001z" fill="#00b9eb"/></g><g><path d="m383.639 455.301h30.001v30h-30.001z" fill="#00b9eb"/></g><path d="m511.929 26.628h-255.954c.011 7.102.026 17.371.043 30h255.911z" fill="#00b9eb"/></g></svg>