<svg id="Layer_1" enable-background="new 0 0 512.177 512.177" height="512" viewBox="0 0 512.177 512.177" width="512" xmlns="http://www.w3.org/2000/svg"><g><path d="m437.136 140.021c-4.726-29.373-19.056-56.335-41.064-76.875-24.996-23.327-57.6-36.174-91.808-36.174-27.374 0-53.722 8.174-76.198 23.637-18.759 12.907-33.789 30.128-43.949 50.242-2.301-.135-4.604-.202-6.901-.202-50.537 0-94.794 31.913-111.118 78.829-16.464 2.654-31.62 10.451-43.511 22.549-14.566 14.818-22.587 34.424-22.587 55.205 0 43.444 35.344 78.788 78.788 78.788h333.856c54.882 0 99.533-44.65 99.533-99.533 0-45.885-31.524-85.449-75.041-96.466z" fill="#ebebf0"/><g><path d="m412.774 418.066-27.111-11.814c-13.421-5.849-28.817-5.847-42.238 0-21.036 9.169-45.168 9.169-66.206 0-13.422-5.849-28.816-5.847-42.238 0-21.036 9.169-45.168 9.169-66.207 0-13.42-5.848-28.816-5.848-42.238 0l-27.11 11.814-11.986-27.502 27.111-11.814c21.039-9.167 45.169-9.169 66.207 0 13.422 5.848 28.817 5.848 42.239 0 21.037-9.167 45.169-9.169 66.206 0 13.422 5.848 28.816 5.848 42.238 0 21.037-9.166 45.169-9.168 66.206 0l27.112 11.814z" fill="#fff5f5"/></g><g><path d="m412.774 485.205-27.111-11.814c-13.421-5.848-28.817-5.848-42.238 0-21.036 9.169-45.168 9.169-66.206 0-13.422-5.848-28.816-5.848-42.238 0-21.036 9.169-45.168 9.169-66.207 0-13.42-5.848-28.816-5.848-42.238 0l-27.11 11.814-11.986-27.502 27.111-11.814c21.039-9.167 45.169-9.168 66.207 0 13.422 5.848 28.817 5.848 42.239 0 21.037-9.167 45.169-9.168 66.206 0 13.422 5.848 28.816 5.848 42.238 0 21.037-9.165 45.169-9.167 66.206 0l27.112 11.814z" fill="#fff5f5"/></g><path d="m512.177 236.487c0-45.885-31.524-85.449-75.041-96.466-4.726-29.373-19.056-56.335-41.064-76.875-24.996-23.327-57.6-36.174-91.808-36.174-16.665 0-32.945 3.047-48.208 8.906v300.142h156.588c54.882 0 99.533-44.65 99.533-99.533z" fill="#d2d2d7"/><g fill="#ebebf0"><path d="m277.219 406.251c21.038 9.169 45.17 9.169 66.206 0 13.421-5.847 28.817-5.849 42.238 0l27.111 11.814 11.985-27.502-27.112-11.814c-21.037-9.168-45.169-9.166-66.206 0-13.422 5.848-28.816 5.848-42.238 0-10.532-4.59-21.84-6.881-33.146-6.875v29.992c7.218-.005 14.437 1.455 21.162 4.385z"/><path d="m277.219 473.39c21.038 9.169 45.17 9.169 66.206 0 13.421-5.848 28.817-5.848 42.238 0l27.111 11.814 11.985-27.502-27.112-11.814c-21.037-9.167-45.169-9.165-66.206 0-13.422 5.848-28.816 5.848-42.238 0-10.532-4.59-21.84-6.88-33.146-6.875v29.992c7.218-.005 14.437 1.455 21.162 4.385z"/></g></g></svg>