<svg id="Layer_1" enable-background="new 0 0 512.177 512.177" height="512" viewBox="0 0 512.177 512.177" width="512" xmlns="http://www.w3.org/2000/svg"><g><path d="m437.135 124.692c-4.726-29.373-19.055-56.335-41.064-76.875-24.995-23.327-57.6-36.174-91.807-36.174-27.374 0-53.723 8.174-76.197 23.637-18.759 12.906-33.789 30.128-43.95 50.242-2.301-.135-4.604-.202-6.901-.202-50.537 0-94.794 31.914-111.117 78.829-16.464 2.654-31.619 10.451-43.511 22.549-14.567 14.819-22.588 34.425-22.588 55.206 0 43.443 35.344 78.787 78.787 78.787h333.856c54.883 0 99.533-44.65 99.533-99.533.001-45.884-31.524-85.448-75.041-96.466z" fill="#ebebf0"/><g><path d="m241.089 349.694h30v30.002h-30z" fill="#fff5f5"/></g><g><path d="m241.089 424.208h30v30.002h-30z" fill="#fff5f5"/></g><g><path d="m181.085 389.697h30v30.002h-30z" fill="#fff5f5"/></g><g><path d="m121.081 359.695h30v30.002h-30z" fill="#fff5f5"/></g><g><path d="m121.081 439.7h30v30.002h-30z" fill="#fff5f5"/></g><g><path d="m61.077 389.697h30v30.002h-30z" fill="#fff5f5"/></g><g><path d="m301.092 389.697h30v30.002h-30z" fill="#fff5f5"/></g><g><path d="m361.096 356.94h30v30.002h-30z" fill="#fff5f5"/></g><g><path d="m361.096 443.529h30v30.002h-30z" fill="#fff5f5"/></g><g><path d="m181.085 470.531h30v30.002h-30z" fill="#fff5f5"/></g><g><path d="m301.092 470.531h30v30.002h-30z" fill="#fff5f5"/></g><g><path d="m421.1 404.698h30v30.002h-30z" fill="#fff5f5"/></g><g><path d="m301.092 389.697h30v30.002h-30z" fill="#ebebf0"/></g><g><path d="m361.096 356.94h30v30.002h-30z" fill="#ebebf0"/></g><g><path d="m361.096 443.529h30v30.002h-30z" fill="#ebebf0"/></g><g><path d="m301.092 470.531h30v30.002h-30z" fill="#ebebf0"/></g><g><path d="m421.1 404.698h30v30.002h-30z" fill="#ebebf0"/></g><path d="m437.135 124.692c-4.726-29.373-19.055-56.335-41.064-76.875-24.995-23.327-57.6-36.174-91.807-36.174-16.65 0-32.914 3.042-48.164 8.89v300.157h156.544c54.883 0 99.533-44.65 99.533-99.533 0-45.883-31.525-85.447-75.042-96.465z" fill="#d2d2d7"/><g fill="#ebebf0"><path d="m256.1 349.694h14.989v30.002h-14.989z"/><path d="m256.1 424.208h14.989v30.002h-14.989z"/></g></g></svg>