<svg id="Layer_1" enable-background="new 0 0 511.92 511.92" height="512" viewBox="0 0 511.92 511.92" width="512" xmlns="http://www.w3.org/2000/svg"><g><path d="m324.693 423.596c-11.829-31.422-13.729-65.236-5.493-97.786 8.236-32.549 25.989-61.391 51.34-83.406 42.368-36.793 66.667-90.079 66.667-146.194v-47.898h-362.495v37.163c0 44.45 18.543 87.435 50.875 117.933 26.375 24.88 35.433 62.981 23.075 97.068-14.248 39.304-7.421 82.461 18.262 115.447l63.063 80.997h122.308z" fill="#fff5f5"/><path d="m255.96 48.312v448.608h96.337l-27.603-73.324c-11.829-31.422-13.729-65.236-5.493-97.786 8.236-32.549 25.989-61.391 51.34-83.406 42.368-36.793 66.667-90.079 66.667-146.194v-47.898z" fill="#ebebf0"/><path d="m376.462 10.049c-32.341-6.481-75.136-10.049-120.502-10.049s-88.161 3.568-120.502 10.049c-28.282 5.667-60.746 15.138-60.746 38.263s32.464 32.596 60.746 38.262c32.34 6.48 75.136 10.049 120.502 10.049s88.162-3.568 120.502-10.049c28.282-5.666 60.746-15.137 60.746-38.262s-32.464-32.596-60.746-38.263z" fill="#ebebf0"/><g><path d="m35.549 481.92h440.822v30h-440.822z" fill="#a5e887"/></g><g fill="#ebebf0"><path d="m316.371 165.253v30h93.59c5.696-9.567 10.544-19.607 14.51-30z"/><path d="m220.704 290.588h-69.081c-.794 3.323-1.777 6.624-2.961 9.888-2.399 6.617-4.186 13.344-5.4 20.112h77.442z"/><path d="m255.96 409.254h64.071c-2.718-9.861-4.49-19.896-5.317-30h-58.754z"/><path d="m172.765 132.111h-91.138c3.132 10.387 7.292 20.442 12.413 30h78.725z"/></g><g><path d="m354.036 365.592h30v30.002h-30z" fill="#9bb9c3"/></g><g><path d="m394.039 325.59h30v30.001h-30z" fill="#9bb9c3"/></g><g><path d="m97.882 415.595h30v30.002h-30z" fill="#9bb9c3"/></g><g><path d="m57.879 375.593h30v30.002h-30z" fill="#9bb9c3"/></g><path d="m316.371 165.253v30h93.59c5.696-9.567 10.544-19.607 14.51-30z" fill="#d2d2d7"/><path d="m255.96 409.254h64.071c-2.718-9.861-4.49-19.896-5.317-30h-58.754z" fill="#d2d2d7"/><g><path d="m354.036 365.592h30v30.002h-30z" fill="#607882"/></g><g><path d="m394.039 325.59h30v30.001h-30z" fill="#607882"/></g><path d="m437.208 48.312c0-23.125-32.464-32.596-60.746-38.263-32.341-6.481-75.136-10.049-120.502-10.049v96.622c45.366 0 88.162-3.568 120.502-10.049 28.282-5.666 60.746-15.136 60.746-38.261z" fill="#d2d2d7"/><path d="m255.96 481.92h220.411v30h-220.411z" fill="#00cc76"/></g></svg>