<svg id="Layer_1" enable-background="new 0 0 511.953 511.953" height="512" viewBox="0 0 511.953 511.953" width="512" xmlns="http://www.w3.org/2000/svg"><g><path d="m255.988 177.904c-72.111 0-130.778 58.667-130.778 130.778v59.773l85.003-.014v-59.759c0-25.24 20.535-45.774 45.775-45.774s45.775 20.534 45.775 45.774v59.789h85.003v-59.789c0-72.112-58.667-130.778-130.778-130.778z" fill="#a5e887"/><path d="m301.763 308.681v59.789h85.003v-59.789c0-72.111-58.667-130.778-130.778-130.778v85.003c25.24.001 45.775 20.535 45.775 45.775z" fill="#00cc76"/><path d="m426.249 138.421c-45.478-45.479-105.945-70.524-170.261-70.524s-124.783 25.046-170.261 70.524c-45.479 45.478-70.524 105.944-70.524 170.26v59.791l85.003-.014v-59.777c0-85.898 69.883-155.781 155.782-155.781s155.782 69.883 155.782 155.781v59.789h85.003v-59.789c0-64.316-25.046-124.782-70.524-170.26z" fill="#ff7c48"/><path d="m426.249 138.421c-45.478-45.479-105.945-70.524-170.261-70.524v85.003c85.898 0 155.782 69.883 155.782 155.781v59.789h85.003v-59.789c0-64.316-25.046-124.782-70.524-170.26z" fill="#ff415b"/><path d="m255.988 129.901c-102.44 0-178.781 76.341-178.781 178.781v59.782l71.003-.014v-59.768c0-55.569 52.209-107.778 107.779-107.778s107.779 52.209 107.779 107.778v59.789h71.003v-59.789c-.002-102.441-76.343-178.781-178.783-178.781z" fill="#6aa9ff"/><path d="m255.988 129.901v71.003c55.569 0 107.779 52.209 107.779 107.778v59.789h71.003v-59.789c-.001-102.441-76.342-178.781-178.782-178.781z" fill="#6e76e5"/><path d="m478.245 343.991c-7.218-29.28-33.858-50.887-64.909-50.887-23.675 0-45.053 12.25-57.048 31.968-23.097.756-43.33 14.692-52.449 35.365-17.773 5.162-30.883 21.688-30.883 40.971 0 23.517 19.132 42.648 42.648 42.648h144.709c28.475 0 51.641-23.166 51.641-51.641-.001-21.924-13.877-41.069-33.709-48.424z" fill="#fff5f5"/><path d="m478.245 343.991c-7.218-29.28-33.858-50.887-64.909-50.887-23.675 0-45.053 12.25-57.048 31.968-23.097.756-43.33 14.692-52.449 35.365-17.773 5.162-30.883 21.688-30.883 40.971 0 23.517 19.132 42.648 42.648 42.648h144.709c28.475 0 51.641-23.166 51.641-51.641-.001-21.924-13.877-41.069-33.709-48.424z" fill="#ebebf0"/><path d="m208.115 360.437c-9.119-20.673-29.352-34.609-52.449-35.365-11.995-19.718-33.373-31.968-57.048-31.968-31.051 0-57.69 21.606-64.909 50.887-19.833 7.355-33.709 26.5-33.709 48.425 0 28.475 23.166 51.641 51.641 51.641h144.709c23.517 0 42.648-19.132 42.648-42.648.001-19.284-13.11-35.81-30.883-40.972z" fill="#fff5f5"/></g></svg>