<svg id="Layer_1" enable-background="new 0 0 511.963 511.963" height="512" viewBox="0 0 511.963 511.963" width="512" xmlns="http://www.w3.org/2000/svg"><g><path d="m247.065 61.167h-39.954l28.252-28.252-21.213-21.213-28.252 28.252v-39.954h-30v39.954l-28.251-28.252-21.213 21.213 28.251 28.252h-39.953v30h39.953l-28.251 28.251 21.213 21.213 28.251-28.252v39.954h30v-39.954l28.252 28.252 21.213-21.213-28.252-28.251h39.954z" fill="#7be2f6"/><path d="m118.569 302.911-15-25.98-29.173 16.843v-33.687h-30v33.687l-29.173-16.843-15 25.98 29.173 16.843-29.173 16.843 15 25.981 29.173-16.843v33.686h30v-33.686l29.173 16.843 15-25.981-29.173-16.843z" fill="#7be2f6"/><g><path d="m347.828 104.333h30v30.002h-30z" fill="#fff5f5"/></g><g><path d="m163.73 217h30v30.002h-30z" fill="#fff5f5"/></g><g><path d="m27.73 152.333h30v30.002h-30z" fill="#fff5f5"/></g><g><path d="m64.398 431.322h30v30.002h-30z" fill="#fff5f5"/></g><g><path d="m155.063 458.324h30v30.002h-30z" fill="#fff5f5"/></g><g><path d="m417.063 53h30v30.002h-30z" fill="#fff5f5"/></g><path d="m511.74 339.612-23.958-18.057-19.969 26.496h-55.93c-.969-3.164-2.239-6.196-3.772-9.069l39.559-39.56 32.856 4.615 4.173-29.708-29.066-4.083-4.083-29.066-29.708 4.173 4.615 32.856-39.559 39.56c-2.873-1.533-5.905-2.803-9.069-3.772v-55.93l26.496-19.969-18.056-23.958-23.44 17.666-23.44-17.666-18.056 23.958 26.496 19.969v55.93c-3.164.969-6.197 2.239-9.069 3.772l-39.559-39.56 4.615-32.856-29.708-4.173-4.083 29.066-29.066 4.083 4.173 29.708 32.856-4.615 39.559 39.56c-1.533 2.873-2.803 5.905-3.772 9.069h-55.93l-19.969-26.496-23.958 18.057 17.666 23.439-17.666 23.439 23.958 18.057 19.969-26.496h55.93c.969 3.164 2.239 6.197 3.772 9.069l-39.559 39.56-32.856-4.615-4.173 29.708 29.066 4.083 4.083 29.065 29.708-4.173-4.615-32.856 39.559-39.56c2.873 1.533 5.905 2.803 9.069 3.772v55.93l-26.496 19.969 18.056 23.958 23.44-17.666 23.44 17.666 18.056-23.958-26.496-19.969v-55.93c3.164-.969 6.197-2.239 9.069-3.772l39.559 39.56-4.615 32.856 29.708 4.173 4.083-29.065 29.066-4.083-4.173-29.708-32.856 4.615-39.559-39.56c1.533-2.873 2.803-5.905 3.772-9.069h55.93l19.969 26.496 23.958-18.057-17.666-23.439zm-148.912 44.736c-11.743 0-21.297-9.554-21.297-21.297s9.554-21.297 21.297-21.297 21.297 9.554 21.297 21.297-9.554 21.297-21.297 21.297z" fill="#55d0f9"/><g><path d="m347.828 104.333h30v30.002h-30z" fill="#ebebf0"/></g><g><path d="m417.063 53h30v30.002h-30z" fill="#ebebf0"/></g><path d="m511.74 339.612-23.958-18.057-19.969 26.496h-55.93c-.969-3.164-2.239-6.196-3.772-9.069l39.559-39.56 32.856 4.615 4.173-29.708-29.066-4.083-4.083-29.066-29.708 4.173 4.615 32.856-39.559 39.56c-2.873-1.533-5.905-2.803-9.069-3.772v-55.93l26.496-19.969-18.056-23.958-23.44 17.666v109.949c11.743 0 21.297 9.554 21.297 21.297s-9.554 21.297-21.297 21.297v109.949l23.44 17.666 18.056-23.958-26.496-19.969v-55.93c3.164-.969 6.197-2.239 9.069-3.772l39.559 39.56-4.615 32.856 29.708 4.173 4.083-29.065 29.066-4.083-4.173-29.708-32.856 4.615-39.559-39.56c1.533-2.873 2.803-5.905 3.772-9.069h55.93l19.969 26.496 23.958-18.057-17.666-23.439z" fill="#00b9eb"/><g fill="#55d0f9"><path d="m247.065 61.167h-39.954l28.252-28.252-21.213-21.213-28.252 28.252v-39.954h-15.024v152.333h15.024v-39.954l28.252 28.252 21.213-21.213-28.252-28.251h39.954z"/><path d="m118.569 302.911-15-25.98-29.173 16.843v-33.687h-15v119.334h15v-33.686l29.173 16.843 15-25.981-29.173-16.843z"/></g></g></svg>