<svg id="Layer_1" enable-background="new 0 0 512.177 512.177" height="512" viewBox="0 0 512.177 512.177" width="512" xmlns="http://www.w3.org/2000/svg"><g><g><path d="m256.064 504.096-49.135-98.286 57.614-26.434-35.265-70.54 26.834-13.415 49.136 98.286-57.614 26.434 35.264 70.54z" fill="#fed943"/></g><path d="m305.248 393.707-49.136-98.286-.024.012v67.032l8.455 16.911-8.455 3.879v33.007z" fill="#fcbe2c"/><path d="m437.135 121.129c-4.726-29.373-19.055-56.335-41.064-76.875-24.995-23.327-57.6-36.174-91.807-36.174-27.374 0-53.722 8.174-76.198 23.637-18.759 12.907-33.789 30.128-43.95 50.242-2.301-.134-4.604-.202-6.901-.202-50.537 0-94.794 31.913-111.118 78.829-16.464 2.655-31.62 10.452-43.511 22.549-14.565 14.819-22.586 34.425-22.586 55.206 0 43.443 35.344 78.788 78.787 78.788h333.856c54.883 0 99.533-44.65 99.533-99.533.001-45.885-31.524-85.449-75.041-96.467z" fill="#9bb9c3"/><g><path d="m147.907 342.131h30v66h-30z" fill="#aed0ff"/></g><g><path d="m87.903 423.133h30v66h-30z" fill="#aed0ff"/></g><g><path d="m147.918 438.134h30v51h-30z" fill="#aed0ff"/></g><g><path d="m87.903 342.131h30v51h-30z" fill="#aed0ff"/></g><g><path d="m394.263 342.131h30v66h-30z" fill="#aed0ff"/></g><g><path d="m334.259 423.133h30v66h-30z" fill="#aed0ff"/></g><g><path d="m394.273 438.134h30v51h-30z" fill="#aed0ff"/></g><g><path d="m334.259 342.131h30v51h-30z" fill="#aed0ff"/></g><g><path d="m394.263 342.131h30v66h-30z" fill="#6aa9ff"/></g><g><path d="m334.259 423.133h30v66h-30z" fill="#6aa9ff"/></g><g><path d="m394.273 438.134h30v51h-30z" fill="#6aa9ff"/></g><g><path d="m334.259 342.131h30v51h-30z" fill="#6aa9ff"/></g><path d="m256.088 437.053v67.031l26.81-13.403z" fill="#fcbe2c"/><path d="m437.135 121.129c-4.726-29.373-19.055-56.335-41.064-76.875-24.995-23.327-57.6-36.174-91.807-36.174-16.654 0-32.922 3.043-48.175 8.894v300.153h156.555c54.883 0 99.533-44.65 99.533-99.533 0-45.883-31.525-85.447-75.042-96.465z" fill="#607882"/></g></svg>