<svg id="Layer_1" enable-background="new 0 0 512.159 512.159" height="512" viewBox="0 0 512.159 512.159" width="512" xmlns="http://www.w3.org/2000/svg"><g><path d="m176.972 322.261v-244.194c0-34.831-28.236-63.067-63.067-63.067-34.831 0-63.067 28.236-63.067 63.067v244.193c-22.183 18.41-36.186 46.334-35.743 77.516.756 53.213 44.19 96.632 97.403 97.373 55.221.768 100.227-43.765 100.227-98.81 0-30.602-13.911-57.952-35.753-76.078z" fill="#fff5f5"/><path d="m176.972 322.26v-244.193c0-34.831-28.236-63.067-63.067-63.067v482.151c54.576-.001 98.82-44.236 98.82-98.812 0-30.602-13.911-57.952-35.753-76.079z" fill="#ebebf0"/><path d="m113.907 512.159c-.002 0-.001 0-.003 0-.536 0-1.076-.004-1.614-.011-29.663-.413-57.637-12.274-78.769-33.4-21.132-21.125-33.002-49.096-33.424-78.759-.458-32.193 12.487-62.591 35.741-84.479v-237.443c0-43.046 35.021-78.067 78.067-78.067s78.067 35.021 78.067 78.067v237.444c22.808 21.481 35.753 51.277 35.753 82.827 0 30.403-11.839 58.986-33.337 80.484-21.497 21.497-50.08 33.337-80.481 33.337zm-.002-482.159c-26.504 0-48.067 21.563-48.067 48.067v251.237l-5.42 4.499c-19.634 16.294-30.687 40.263-30.324 65.76.638 44.914 37.698 81.963 82.613 82.588 22.832.266 44.355-8.429 60.468-24.542 15.832-15.831 24.55-36.881 24.55-59.271 0-25.016-11.056-48.538-30.332-64.535l-5.421-4.499v-251.237c0-26.504-21.563-48.067-48.067-48.067z" fill="#ebebf0"/><path d="m191.972 315.512v-237.445c0-43.046-35.021-78.067-78.067-78.067v30c26.504 0 48.067 21.563 48.067 48.067v251.237l5.421 4.499c19.276 15.997 30.332 39.52 30.332 64.535 0 22.39-8.719 43.439-24.55 59.271-15.83 15.83-36.885 24.479-59.27 24.527v30.023h.002c30.401 0 58.985-11.84 80.481-33.336 21.498-21.498 33.337-50.081 33.337-80.484 0-31.55-12.945-61.346-35.753-82.827z" fill="#d2d2d7"/><path d="m128.905 345.436v-74.862h-30v74.862c-23.056 6.547-39.999 27.777-39.999 52.903 0 30.326 24.672 54.999 54.999 54.999 30.326 0 54.999-24.673 54.999-54.999 0-25.126-16.943-46.355-39.999-52.903z" fill="#7be2f6"/><path d="m128.905 345.436v-74.862h-15v182.764c30.326 0 54.999-24.673 54.999-54.999 0-25.126-16.943-46.355-39.999-52.903z" fill="#55d0f9"/><path d="m98.905 285.574h119.172v-30h-89.172v-179.52h-30z" fill="#6aa9ff"/><path d="m113.905 285.574h104.172v-30h-89.172v-179.52h-15z" fill="#6e76e5"/><path d="m512.074 131.027-23.958-18.057-16.961 22.505h-39.286c-1.125-3.886-2.669-7.594-4.592-11.068l27.785-27.785 27.906 3.92 4.173-29.709-24.116-3.387-3.388-24.117-29.708 4.174 3.92 27.906-27.784 27.784c-3.474-1.923-7.182-3.466-11.068-4.592v-39.285l22.505-16.961-18.057-23.957-19.448 14.657-19.448-14.657-18.057 23.957 22.505 16.961v39.286c-3.886 1.126-7.595 2.669-11.069 4.592l-27.785-27.784 3.92-27.906-29.708-4.174-3.388 24.117-24.116 3.387 4.173 29.709 27.906-3.92 27.785 27.785c-1.923 3.474-3.466 7.182-4.592 11.068h-39.287l-16.961-22.505-23.958 18.057 14.658 19.448-14.658 19.448 23.958 18.057 16.961-22.505h39.287c1.126 3.886 2.669 7.594 4.592 11.068l-27.785 27.785-27.906-3.92-4.173 29.709 24.116 3.387 3.388 24.117 29.708-4.174-3.92-27.906 27.785-27.785c3.474 1.923 7.182 3.466 11.068 4.592v39.286l-22.504 16.96 18.056 23.959 19.449-14.657 19.449 14.657 18.056-23.959-22.504-16.96v-39.286c3.886-1.125 7.594-2.669 11.068-4.592l27.785 27.785-3.92 27.906 29.708 4.174 3.388-24.117 24.116-3.387-4.173-29.709-27.906 3.92-27.785-27.785c1.923-3.474 3.466-7.182 4.592-11.068h39.286l16.961 22.505 23.958-18.057-14.658-19.448zm-132.078 43.456c-13.238 0-24.008-10.77-24.008-24.008s10.77-24.009 24.008-24.009 24.008 10.771 24.008 24.009-10.769 24.008-24.008 24.008z" fill="#55d0f9"/><path d="m512.074 131.027-23.958-18.057-16.961 22.505h-39.286c-1.125-3.886-2.669-7.594-4.592-11.068l27.785-27.785 27.906 3.92 4.173-29.709-24.116-3.387-3.388-24.117-29.708 4.174 3.92 27.906-27.784 27.784c-3.474-1.923-7.182-3.466-11.068-4.592v-39.285l22.505-16.961-18.057-23.957-19.448 14.657v93.412c13.238 0 24.008 10.771 24.008 24.009s-10.77 24.008-24.008 24.008v93.413l19.449 14.657 18.056-23.959-22.504-16.96v-39.286c3.886-1.125 7.594-2.669 11.068-4.592l27.785 27.785-3.92 27.906 29.708 4.174 3.388-24.117 24.116-3.387-4.173-29.709-27.906 3.92-27.785-27.785c1.923-3.474 3.466-7.182 4.592-11.068h39.286l16.961 22.505 23.958-18.057-14.658-19.448z" fill="#00b9eb"/></g></svg>