<svg id="Layer_1" enable-background="new 0 0 512.159 512.159" height="512" viewBox="0 0 512.159 512.159" width="512" xmlns="http://www.w3.org/2000/svg"><g><path d="m177.026 322.261v-244.194c0-34.831-28.236-63.067-63.067-63.067-34.831 0-63.067 28.236-63.067 63.067v244.193c-22.183 18.41-36.186 46.334-35.743 77.516.756 53.213 44.19 96.632 97.403 97.373 55.221.768 100.227-43.765 100.227-98.81 0-30.602-13.912-57.952-35.753-76.078z" fill="#fff5f5"/><path d="m177.026 322.26v-244.193c0-34.831-28.236-63.067-63.067-63.067v482.151c54.576-.001 98.82-44.236 98.82-98.812 0-30.602-13.912-57.952-35.753-76.079z" fill="#ebebf0"/><path d="m113.96 512.159c-.002 0-.001 0-.003 0-.536 0-1.076-.004-1.614-.011-29.663-.413-57.637-12.274-78.769-33.4-21.132-21.125-33.002-49.096-33.424-78.759-.458-32.193 12.487-62.591 35.741-84.479v-237.443c0-43.046 35.021-78.067 78.068-78.067s78.067 35.021 78.067 78.067v237.444c22.808 21.481 35.753 51.277 35.753 82.827 0 30.403-11.839 58.986-33.337 80.484-21.497 21.497-50.08 33.337-80.482 33.337zm-.001-482.159c-26.504 0-48.067 21.563-48.067 48.067v251.237l-5.42 4.499c-19.634 16.294-30.687 40.263-30.324 65.76.638 44.914 37.698 81.963 82.613 82.588 22.832.266 44.355-8.429 60.468-24.542 15.832-15.831 24.55-36.881 24.55-59.271 0-25.016-11.056-48.538-30.332-64.535l-5.421-4.499v-251.237c0-26.504-21.563-48.067-48.067-48.067z" fill="#ebebf0"/><path d="m192.026 315.512v-237.445c0-43.046-35.021-78.067-78.067-78.067v30c26.504 0 48.067 21.563 48.067 48.067v251.237l5.421 4.499c19.276 15.997 30.332 39.52 30.332 64.535 0 22.39-8.719 43.439-24.55 59.271-15.83 15.83-36.886 24.479-59.27 24.527v30.023h.002c30.401 0 58.985-11.84 80.481-33.336 21.498-21.498 33.337-50.081 33.337-80.484 0-31.55-12.945-61.346-35.753-82.827z" fill="#d2d2d7"/><path d="m128.959 345.436v-217.471h-30v217.471c-23.056 6.547-39.999 27.777-39.999 52.903 0 30.326 24.672 54.999 54.999 54.999 30.326 0 54.999-24.673 54.999-54.999-.001-25.126-16.943-46.355-39.999-52.903z" fill="#fd657d"/><path d="m128.959 345.436v-217.471h-15v325.373c30.326 0 54.999-24.673 54.999-54.999-.001-25.126-16.943-46.355-39.999-52.903z" fill="#ff415b"/><circle cx="380.05" cy="150.475" fill="#fed943" r="70.907"/><g><path d="m365.05 18.505h30v40.788h-30z" fill="#fcbe2c"/></g><g><path d="m286.153 51.185h30v40.788h-30z" fill="#fcbe2c" transform="matrix(.707 -.707 .707 .707 37.589 233.908)"/></g><g><path d="m248.079 135.476h40.788v30h-40.788z" fill="#fcbe2c"/></g><g><path d="m280.759 214.372h40.788v30h-40.788z" fill="#fcbe2c" transform="matrix(.707 -.707 .707 .707 -73.984 280.133)"/></g><g><path d="m365.05 241.658h30v40.788h-30z" fill="#fcbe2c"/></g><g><path d="m443.947 208.978h30v40.788h-30z" fill="#fcbe2c" transform="matrix(.707 -.707 .707 .707 -27.768 391.706)"/></g><g><path d="m471.233 135.476h40.788v30h-40.788z" fill="#fcbe2c"/></g><g><path d="m438.552 56.579h40.788v30h-40.788z" fill="#fcbe2c" transform="matrix(.707 -.707 .707 .707 83.808 345.489)"/></g><path d="m98.959 142.965h119.172v-30h-89.172v-36.911h-30z" fill="#ff415b"/><path d="m113.959 142.965h104.172v-30h-89.172v-36.911h-15z" fill="#df004b"/><g><path d="m443.947 208.978h30v40.788h-30z" fill="#f7aa00" transform="matrix(.707 -.707 .707 .707 -27.768 391.706)"/></g><g><path d="m471.233 135.476h40.788v30h-40.788z" fill="#f7aa00"/></g><g><path d="m438.552 56.579h40.788v30h-40.788z" fill="#f7aa00" transform="matrix(.707 -.707 .707 .707 83.808 345.489)"/></g><path d="m450.957 150.476c0-39.099-31.809-70.907-70.907-70.907v141.813c39.098 0 70.907-31.809 70.907-70.906z" fill="#fcbe2c"/><g fill="#f7aa00"><path d="m380.05 18.505h15v40.788h-15z"/><path d="m380.05 241.658h15v40.788h-15z"/></g></g></svg>