<svg id="Layer_1" enable-background="new 0 0 511.877 511.877" height="512" viewBox="0 0 511.877 511.877" width="512" xmlns="http://www.w3.org/2000/svg"><g><path d="m77.158 59.75h-22.163v98.619h96.675v-24.106c0-41.087-33.426-74.513-74.512-74.513z" fill="#ff7c48"/><path d="m266.203 481.877v-197.012h-30v197.012h-38.307v30h106.614v-30z" fill="#07485e"/><path d="m304.51 481.877h-38.307v-197.012h-15v227.012h53.307z" fill="#04303e"/><g><path d="m365.736 59.75h42.007v30h-42.007z" fill="#ff7c48"/></g><g><path d="m365.736 59.75h42.007v30h-42.007z" fill="#fd657d"/></g><path d="m331.144 0h-34.592v128.369h-174.882v41.963c0 71.425 58.108 129.533 129.533 129.533s129.533-58.108 129.533-129.533v-120.739c0-27.346-22.247-49.593-49.592-49.593z" fill="#ff415b"/><path d="m380.736 170.332v-120.739c0-27.346-22.247-49.593-49.592-49.593h-34.592v128.369h-45.349v171.496c71.425 0 129.533-58.108 129.533-129.533z" fill="#df004b"/><path d="m419.988 325.617-22.168 20.213 23.794 26.097h-255.179l-33.187-36.4-22.169 20.213 14.758 16.187h-34.492l-33.187-36.4-22.169 20.213 28.435 31.187-28.434 31.185 22.168 20.213 33.187-36.398h34.492l-14.757 16.185 22.168 20.213 33.187-36.398h255.179l-23.794 26.096 22.168 20.213 55.9-61.309z" fill="#9bb9c3"/><path d="m251.203 213.22c25.045 0 45.348-20.303 45.348-45.348v-39.502h-90.696v39.502c0 25.045 20.303 45.348 45.348 45.348z" fill="#ff7c48"/><path d="m296.551 167.871v-39.502h-45.348v84.85c25.045.001 45.348-20.302 45.348-45.348z" fill="#fd657d"/><path d="m419.988 325.617-22.168 20.213 23.794 26.097h-170.411v30h170.411l-23.794 26.096 22.168 20.213 55.9-61.309z" fill="#607882"/></g></svg>